<svg width="176" height="197" viewBox="0 0 176 197" fill="none" xmlns="http://www.w3.org/2000/svg">
<g opacity="0.05" clip-path="url(#clip0_301_1829)">
<path d="M36.3026 185.682C36.3058 197.383 38.0076 209.022 41.3547 220.235L41.5489 220.885L42.2153 220.756C42.319 220.736 42.4242 220.725 42.5297 220.722H140.394C140.521 220.724 140.647 220.737 140.771 220.763L141.445 220.903L141.642 220.243C144.991 209.028 146.694 197.387 146.697 185.683C146.739 167.027 142.392 148.623 134.007 131.957L133.799 131.544H133.337H49.6621H49.1999L48.9921 131.957C40.6077 148.622 36.2608 167.026 36.3026 185.682ZM36.3026 185.682C36.3026 185.682 36.3026 185.682 36.3026 185.681L37.0526 185.681M36.3026 185.682C36.3026 185.682 36.3026 185.683 36.3026 185.683L37.0526 185.681M37.0526 185.681C37.011 167.143 41.3305 148.855 49.6621 132.294M37.0526 185.681C37.0557 197.31 38.7469 208.877 42.0734 220.02C42.221 219.992 42.3707 219.976 42.5209 219.972L49.6621 132.294M49.6621 132.294H133.337H49.6621ZM135.344 65.4658L135.372 66.8312L136.509 66.0748C146.316 59.5513 157.006 54.4644 168.253 50.9687C168.757 50.8315 169.292 50.8727 169.769 51.0854C170.248 51.2995 170.638 51.6741 170.872 52.1447C171.104 52.6154 171.166 53.1525 171.045 53.6635C170.924 54.1747 170.629 54.6277 170.21 54.9444C165.643 58.3947 161.55 63.6425 157.922 69.7875C154.29 75.9397 151.099 83.0346 148.353 90.2226C142.861 104.598 139.125 119.408 137.198 127.93L137.138 128.197L137.264 128.44C146.087 145.485 150.853 164.339 151.189 183.53C151.526 202.72 147.424 221.728 139.205 239.072C138.435 240.648 137.238 241.976 135.75 242.906C134.261 243.836 132.54 244.33 130.785 244.331H52.2153C50.4593 244.33 48.7388 243.836 47.2497 242.906C45.7616 241.976 44.5644 240.648 43.7939 239.071C35.558 221.692 31.4569 202.641 31.8119 183.412C32.1669 164.182 36.9687 145.296 45.8412 128.232C45.8416 128.231 45.8419 128.23 45.8423 128.229L46.4284 127.121L46.559 126.874L46.4961 126.602C44.4396 117.696 40.6654 103.13 35.2241 89.1383C29.7994 75.1889 22.6575 61.6442 13.79 54.9444L13.7899 54.9443C13.3707 54.6277 13.0751 54.1746 12.9542 53.6634C12.8333 53.1521 12.8947 52.6147 13.1276 52.1438C13.3606 51.6729 13.7507 51.2981 14.2304 51.0841C14.7071 50.8714 15.2428 50.8307 15.746 50.9686C26.6365 54.3486 37.0046 59.2253 46.5531 65.4587L47.6779 66.193L47.7128 64.8501C47.9896 54.1965 49.7563 44.7603 52.9918 37.3724L52.9918 37.3723C53.1293 37.0582 53.3367 36.7795 53.5982 36.5575C53.8597 36.3355 54.1683 36.1761 54.5006 36.0913C54.833 36.0066 55.1803 35.9987 55.5161 36.0683C55.8519 36.1379 56.1675 36.2832 56.4387 36.4931L56.4387 36.4931C63.5447 41.9912 70.2665 50.5898 76.0283 61.2965L76.8602 62.8424L77.4021 61.1726C80.6005 51.3166 84.7727 42.9055 89.741 36.5371C89.952 36.2667 90.2218 36.048 90.53 35.8976C90.8382 35.7471 91.1766 35.6689 91.5196 35.6689C91.8625 35.6689 92.2009 35.7471 92.5091 35.8976C92.8173 36.048 93.0872 36.2667 93.2981 36.5371C98.2667 42.9055 102.437 51.3189 105.634 61.1769L106.176 62.8473L107.008 61.3009C112.771 50.592 119.493 41.9919 126.6 36.4931L126.141 35.9001L126.6 36.4931C126.871 36.2832 127.187 36.1379 127.523 36.0683C127.859 35.9987 128.206 36.0066 128.538 36.0913C128.87 36.1761 129.179 36.3355 129.441 36.5575C129.702 36.7795 129.909 37.0582 130.047 37.3723C133.345 44.9032 135.12 54.5597 135.344 65.4658ZM127.405 43.0919L127.037 41.9781L126.18 42.7795C119.554 48.9788 113.318 58.2045 108.116 69.1992L108.002 69.4405L108.066 69.6996C109.479 75.427 110.565 81.2304 111.317 87.0814L111.54 88.8147L112.643 87.4589C117.868 81.0348 123.865 75.2787 130.497 70.3207L130.792 70.1003L130.798 69.7321C130.961 59.6396 129.84 50.4623 127.405 43.0919ZM92.1465 42.6768L91.5198 41.7232L90.893 42.6768C80.8067 58.0232 74.7027 83.717 74.7027 111.135C74.7027 116.292 74.9324 121.375 75.3498 126.345L75.4076 127.032H76.0972H106.942H107.632L107.69 126.345C108.107 121.375 108.337 116.292 108.337 111.135C108.337 83.717 102.233 58.023 92.1465 42.6768ZM56.8592 42.7795L56.0027 41.9781L55.6346 43.0918C53.2582 50.2839 52.1338 59.1963 52.2318 69L52.2355 69.3759L52.5389 69.5978C59.1968 74.4689 65.2395 80.1293 70.5346 86.4552L71.6257 87.7586L71.853 86.0741C72.5967 80.5632 73.6382 75.0966 74.9727 69.6982L75.0368 69.4389L74.9225 69.1974C69.7207 58.2036 63.4847 48.9786 56.8592 42.7795ZM70.9009 94.6416L70.9248 94.3658L70.7638 94.1405C57.7922 75.9949 38.7997 65.2925 26.5825 59.8734L24.0157 58.7349L25.673 61.0017C32.5128 70.357 38.0377 82.989 42.2756 95.1751C46.5098 107.351 49.4421 119.03 51.1144 126.447L51.2463 127.032H51.8461H70.0575H70.8699L70.8051 126.222C70.4115 121.301 70.1912 116.267 70.1912 111.135C70.1912 105.516 70.4348 100.002 70.9009 94.6416ZM135.135 237.125L135.139 237.117C136.837 233.57 138.351 229.939 139.673 226.236L140.032 225.234H138.967H44.0328H42.9684L43.3265 226.236C44.6494 229.939 46.1628 233.571 47.8608 237.117L47.8648 237.125C48.2655 237.937 48.886 238.619 49.6557 239.096C50.4253 239.572 51.3133 239.822 52.2183 239.819H130.781C131.687 239.822 132.575 239.572 133.344 239.095C134.114 238.619 134.734 237.936 135.135 237.125ZM132.154 127.032H132.753L132.885 126.447C134.557 119.032 137.488 107.357 141.721 95.1852C145.957 83.0027 151.479 70.3734 158.316 61.0168L159.973 58.7479L157.405 59.8889C145.103 65.3553 125.937 76.165 112.986 94.4847L112.849 94.6793V94.9177V126.282V127.032H113.599H132.154Z" fill="#121212" stroke="#F8F8F8" stroke-width="1.5"/>
</g>
<defs>
<clipPath id="clip0_301_1829">
<rect width="176" height="197" fill="white"/>
</clipPath>
</defs>
</svg>
